<svg width="212" height="48" viewBox="0 0 212 48" fill="none" xmlns="http://www.w3.org/2000/svg">
<path d="M50.3369 48L17.6202 36.3155L38.6524 15.2833L50.3369 48ZM21.0555 25.8695L7.9922 12.8062C7.72086 12.5342 7.39851 12.3184 7.04362 12.1711C6.68873 12.0238 6.30828 11.948 5.92405 11.948C5.53982 11.948 5.15936 12.0238 4.80448 12.1711C4.44959 12.3184 4.12724 12.5342 3.85589 12.8062L2.47711 14.185L-6.27845e-06 11.7079L1.37877 10.3291C2.58647 9.12783 4.22063 8.45349 5.92405 8.45349C7.62747 8.45349 9.26162 9.12783 10.4693 10.3291L23.5326 23.3924L21.0555 25.8695V25.8695ZM31.5015 12.666L32.8802 14.0448L30.4031 16.5219L29.0243 15.1431C27.823 13.9354 27.1487 12.3013 27.1487 10.5979C27.1487 8.89444 27.823 7.26028 29.0243 6.05258L30.4031 4.67381L32.8802 7.17429L31.5015 8.55307C30.3797 9.67478 30.3797 11.5443 31.5015 12.666ZM15.1431 24.3505L18.8588 28.0662L16.3817 30.5433L12.666 26.8277C12.3947 26.5556 12.0723 26.3398 11.7174 26.1925C11.3625 26.0453 10.9821 25.9695 10.5979 25.9695C10.2136 25.9695 9.83317 26.0453 9.47828 26.1925C9.12339 26.3398 8.80104 26.5556 8.5297 26.8277L4.76728 30.5901L2.29016 28.1129L6.05257 24.3505C7.26028 23.1492 8.89443 22.4749 10.5979 22.4749C12.3013 22.4749 13.9354 23.1492 15.1431 24.3505V24.3505ZM19.8169 10.3291L28.2064 18.7186L25.7293 21.1957L17.3398 12.8062C16.1385 11.5985 15.4642 9.96437 15.4642 8.26095C15.4642 6.55753 16.1385 4.92338 17.3398 3.71568L21.0555 0L23.5326 2.47712L19.8169 6.19279C18.6952 7.33788 18.6952 9.2074 19.8169 10.3291V10.3291Z" fill="#FFCE95"/>
<path d="M69.4409 29.944C71.4889 28.2373 73.1209 26.8187 74.3369 25.688C75.5529 24.536 76.5662 23.3413 77.3769 22.104C78.1876 20.8667 78.5929 19.6507 78.5929 18.456C78.5929 17.368 78.3369 16.5147 77.8249 15.896C77.3129 15.2773 76.5236 14.968 75.4569 14.968C74.3902 14.968 73.5689 15.3307 72.9929 16.056C72.4169 16.76 72.1182 17.7307 72.0969 18.968H67.7449C67.8302 16.408 68.5876 14.4667 70.0169 13.144C71.4676 11.8213 73.3022 11.16 75.5209 11.16C77.9529 11.16 79.8196 11.8107 81.1209 13.112C82.4222 14.392 83.0729 16.088 83.0729 18.2C83.0729 19.864 82.6249 21.4533 81.7289 22.968C80.8329 24.4827 79.8089 25.8053 78.6569 26.936C77.5049 28.0453 76.0009 29.3893 74.1449 30.968H83.5849V34.68H67.7769V31.352L69.4409 29.944ZM87.0479 23.032C87.0479 19.3413 87.7092 16.4507 89.0319 14.36C90.3759 12.2693 92.5946 11.224 95.6879 11.224C98.7812 11.224 100.989 12.2693 102.312 14.36C103.656 16.4507 104.328 19.3413 104.328 23.032C104.328 26.744 103.656 29.656 102.312 31.768C100.989 33.88 98.7812 34.936 95.6879 34.936C92.5946 34.936 90.3759 33.88 89.0319 31.768C87.7092 29.656 87.0479 26.744 87.0479 23.032ZM99.9119 23.032C99.9119 21.4533 99.8052 20.1307 99.5919 19.064C99.3999 17.976 98.9946 17.0907 98.3759 16.408C97.7786 15.7253 96.8826 15.384 95.6879 15.384C94.4932 15.384 93.5866 15.7253 92.9679 16.408C92.3706 17.0907 91.9652 17.976 91.7519 19.064C91.5599 20.1307 91.4639 21.4533 91.4639 23.032C91.4639 24.6533 91.5599 26.0187 91.7519 27.128C91.9439 28.216 92.3492 29.1013 92.9679 29.784C93.5866 30.4453 94.4932 30.776 95.6879 30.776C96.8826 30.776 97.7892 30.4453 98.4079 29.784C99.0266 29.1013 99.4319 28.216 99.6239 27.128C99.8159 26.0187 99.9119 24.6533 99.9119 23.032ZM109.783 29.944C111.831 28.2373 113.463 26.8187 114.679 25.688C115.895 24.536 116.909 23.3413 117.719 22.104C118.53 20.8667 118.935 19.6507 118.935 18.456C118.935 17.368 118.679 16.5147 118.167 15.896C117.655 15.2773 116.866 14.968 115.799 14.968C114.733 14.968 113.911 15.3307 113.335 16.056C112.759 16.76 112.461 17.7307 112.439 18.968H108.087C108.173 16.408 108.93 14.4667 110.359 13.144C111.81 11.8213 113.645 11.16 115.863 11.16C118.295 11.16 120.162 11.8107 121.463 13.112C122.765 14.392 123.415 16.088 123.415 18.2C123.415 19.864 122.967 21.4533 122.071 22.968C121.175 24.4827 120.151 25.8053 118.999 26.936C117.847 28.0453 116.343 29.3893 114.487 30.968H123.927V34.68H108.119V31.352L109.783 29.944ZM127.454 17.816C127.561 15.6827 128.308 14.04 129.694 12.888C131.102 11.7147 132.948 11.128 135.23 11.128C136.788 11.128 138.121 11.4053 139.23 11.96C140.34 12.4933 141.172 13.2293 141.726 14.168C142.302 15.0853 142.59 16.1307 142.59 17.304C142.59 18.648 142.238 19.7893 141.534 20.728C140.852 21.6453 140.03 22.264 139.07 22.584V22.712C140.308 23.096 141.268 23.7787 141.95 24.76C142.654 25.7413 143.006 27 143.006 28.536C143.006 29.816 142.708 30.9573 142.11 31.96C141.534 32.9627 140.67 33.752 139.518 34.328C138.388 34.8827 137.022 35.16 135.422 35.16C133.012 35.16 131.049 34.552 129.534 33.336C128.02 32.12 127.22 30.328 127.134 27.96H131.486C131.529 29.0053 131.881 29.848 132.542 30.488C133.225 31.1067 134.153 31.416 135.326 31.416C136.414 31.416 137.246 31.1173 137.822 30.52C138.42 29.9013 138.718 29.112 138.718 28.152C138.718 26.872 138.313 25.9547 137.502 25.4C136.692 24.8453 135.433 24.568 133.726 24.568H132.798V20.888H133.726C136.756 20.888 138.27 19.8747 138.27 17.848C138.27 16.9307 137.993 16.216 137.438 15.704C136.905 15.192 136.126 14.936 135.102 14.936C134.1 14.936 133.321 15.2133 132.766 15.768C132.233 16.3013 131.924 16.984 131.838 17.816H127.454Z" fill="#FFCE95"/>
<path d="M161.337 48L194.054 36.3155L173.021 15.2833L161.337 48ZM190.618 25.8695L203.682 12.8062C203.953 12.5342 204.275 12.3184 204.63 12.1711C204.985 12.0238 205.366 11.948 205.75 11.948C206.134 11.948 206.514 12.0238 206.869 12.1711C207.224 12.3184 207.547 12.5342 207.818 12.8062L209.197 14.185L211.674 11.7079L210.295 10.3291C209.087 9.12783 207.453 8.45349 205.75 8.45349C204.046 8.45349 202.412 9.12783 201.204 10.3291L188.141 23.3924L190.618 25.8695V25.8695ZM180.172 12.666L178.794 14.0448L181.271 16.5219L182.649 15.1431C183.851 13.9354 184.525 12.3013 184.525 10.5979C184.525 8.89444 183.851 7.26028 182.649 6.05258L181.271 4.67381L178.794 7.17429L180.172 8.55307C181.294 9.67478 181.294 11.5443 180.172 12.666ZM196.531 24.3505L192.815 28.0662L195.292 30.5433L199.008 26.8277C199.279 26.5556 199.601 26.3398 199.956 26.1925C200.311 26.0453 200.692 25.9695 201.076 25.9695C201.46 25.9695 201.841 26.0453 202.196 26.1925C202.55 26.3398 202.873 26.5556 203.144 26.8277L206.907 30.5901L209.384 28.1129L205.621 24.3505C204.414 23.1492 202.779 22.4749 201.076 22.4749C199.373 22.4749 197.738 23.1492 196.531 24.3505V24.3505ZM191.857 10.3291L183.467 18.7186L185.944 21.1957L194.334 12.8062C195.535 11.5985 196.21 9.96437 196.21 8.26095C196.21 6.55753 195.535 4.92338 194.334 3.71568L190.618 0L188.141 2.47712L191.857 6.19279C192.979 7.33788 192.979 9.2074 191.857 10.3291V10.3291Z" fill="#FFCE95"/>
</svg>
