<svg width="18" height="18" viewBox="0 0 18 18" fill="none" xmlns="http://www.w3.org/2000/svg">
<path d="M3.91667 7C3.67355 7 3.44039 7.0878 3.26849 7.24408C3.09658 7.40036 3 7.61232 3 7.83333C3 8.05435 3.09658 8.26631 3.26849 8.42259C3.44039 8.57887 3.67355 8.66667 3.91667 8.66667H13.0833C13.3264 8.66667 13.5596 8.57887 13.7315 8.42259C13.9034 8.26631 14 8.05435 14 7.83333C14 7.61232 13.9034 7.40036 13.7315 7.24408C13.5596 7.0878 13.3264 7 13.0833 7H3.91667ZM3.91667 10.3333C3.67355 10.3333 3.44039 10.4211 3.26849 10.5774C3.09658 10.7337 3 10.9457 3 11.1667C3 11.3877 3.09658 11.5996 3.26849 11.7559C3.44039 11.9122 3.67355 12 3.91667 12H9.41667C9.65978 12 9.89294 11.9122 10.0648 11.7559C10.2368 11.5996 10.3333 11.3877 10.3333 11.1667C10.3333 10.9457 10.2368 10.7337 10.0648 10.5774C9.89294 10.4211 9.65978 10.3333 9.41667 10.3333H3.91667Z" fill="#303030"/>
<path d="M9 2.25C9.79565 2.25 10.5587 2.01295 11.1213 1.59099C11.6839 1.16903 12 0.596737 12 0H15.75C16.3467 0 16.919 0.17779 17.341 0.494257C17.7629 0.810725 18 1.23995 18 1.6875V16.3125C18 16.7601 17.7629 17.1893 17.341 17.5057C16.919 17.8222 16.3467 18 15.75 18H2.25C1.65326 18 1.08097 17.8222 0.65901 17.5057C0.237053 17.1893 0 16.7601 0 16.3125V1.6875C0 1.23995 0.237053 0.810725 0.65901 0.494257C1.08097 0.17779 1.65326 0 2.25 0L6 0C6 0.596737 6.31607 1.16903 6.87868 1.59099C7.44129 2.01295 8.20435 2.25 9 2.25ZM9 3.375C8.06907 3.3752 7.16096 3.15893 6.40072 2.75598C5.64048 2.35303 5.06552 1.78321 4.755 1.125H2.25C2.05109 1.125 1.86032 1.18426 1.71967 1.28975C1.57902 1.39524 1.5 1.53832 1.5 1.6875V16.3125C1.5 16.4617 1.57902 16.6048 1.71967 16.7102C1.86032 16.8157 2.05109 16.875 2.25 16.875H15.75C15.9489 16.875 16.1397 16.8157 16.2803 16.7102C16.421 16.6048 16.5 16.4617 16.5 16.3125V1.6875C16.5 1.53832 16.421 1.39524 16.2803 1.28975C16.1397 1.18426 15.9489 1.125 15.75 1.125H13.245C12.9345 1.78321 12.3595 2.35303 11.5993 2.75598C10.839 3.15893 9.93093 3.3752 9 3.375V3.375Z" fill="#303030"/>
</svg>
