<svg width="55" height="48" viewBox="0 0 55 48" fill="none" xmlns="http://www.w3.org/2000/svg">
<g clip-path="url(#clip0_10_77)">
<path d="M15.5188 19.4688H13.8311C11.5281 19.3864 9.23245 19.7734 7.08677 20.6057C4.94109 21.438 2.99113 22.6979 1.3579 24.3072L0.892334 24.8448V40.7424H8.80692V31.7184L9.87384 30.528L10.3588 29.9712C12.8843 27.4032 16.0286 25.5135 19.4955 24.48C17.7597 23.1727 16.3907 21.4476 15.5188 19.4688V19.4688Z" fill="#FFCE95"/>
<path d="M53.0355 24.2496C51.4023 22.6403 49.4523 21.3804 47.3066 20.5481C45.161 19.7158 42.8654 19.3288 40.5623 19.4112C39.8559 19.4132 39.1502 19.4516 38.4478 19.5264C37.5596 21.3828 36.228 22.9973 34.5681 24.2304C38.2693 25.2439 41.6222 27.235 44.2674 29.9904L44.7524 30.528L45.7999 31.7184V40.7616H53.4429V24.7872L53.0355 24.2496Z" fill="#FFCE95"/>
<path d="M13.7729 15.7248H14.3743C14.0949 13.3502 14.5158 10.9463 15.5863 8.80335C16.6569 6.66036 18.3312 4.86986 20.4072 3.64798C19.6547 2.51009 18.6165 1.58514 17.3942 0.963715C16.172 0.342287 14.8077 0.0456818 13.4349 0.102942C12.062 0.160203 10.7278 0.569367 9.5627 1.29037C8.39764 2.01137 7.44173 3.01949 6.78859 4.21601C6.13544 5.41253 5.80745 6.75643 5.83673 8.11611C5.86601 9.47579 6.25156 10.8046 6.95561 11.9725C7.65967 13.1404 8.65811 14.1073 9.85315 14.7785C11.0482 15.4497 12.3989 15.8023 13.7729 15.8016V15.7248Z" fill="#FFCE95"/>
<path d="M39.6311 14.2848C39.6547 14.7261 39.6547 15.1683 39.6311 15.6096C40.0034 15.668 40.3794 15.7001 40.7562 15.7056H41.1248C42.4928 15.6334 43.8186 15.2118 44.9732 14.4819C46.1277 13.7521 47.0716 12.7387 47.713 11.5406C48.3544 10.3424 48.6715 9.00033 48.6332 7.64492C48.595 6.28952 48.2029 4.967 47.495 3.80612C46.7871 2.64525 45.7876 1.68557 44.5937 1.02053C43.3998 0.355494 42.0523 0.00775277 40.6824 0.0111638C39.3124 0.0145748 37.9667 0.369022 36.7763 1.04C35.5858 1.71097 34.5912 2.67561 33.8892 3.84C35.6449 4.97459 37.0886 6.52282 38.0908 8.3458C39.0929 10.1688 39.6222 12.2095 39.6311 14.2848V14.2848Z" fill="#FFCE95"/>
<path d="M26.9057 22.8864C31.6946 22.8864 35.5768 19.0439 35.5768 14.304C35.5768 9.56409 31.6946 5.72162 26.9057 5.72162C22.1168 5.72162 18.2346 9.56409 18.2346 14.304C18.2346 19.0439 22.1168 22.8864 26.9057 22.8864Z" fill="#FFCE95"/>
<path d="M27.3713 27.456C24.8379 27.3548 22.3101 27.7619 19.9398 28.6528C17.5695 29.5436 15.4058 30.8999 13.579 32.64L13.094 33.1776V45.3312C13.1016 45.7271 13.1879 46.1176 13.3479 46.4805C13.508 46.8434 13.7388 47.1714 14.027 47.446C14.3152 47.7206 14.6553 47.9363 15.0278 48.0808C15.4002 48.2252 15.7978 48.2957 16.1978 48.288H38.4866C38.8866 48.2957 39.2842 48.2252 39.6566 48.0808C40.0291 47.9363 40.3691 47.7206 40.6574 47.446C40.9456 47.1714 41.1763 46.8434 41.3364 46.4805C41.4965 46.1176 41.5828 45.7271 41.5904 45.3312V33.216L41.1248 32.64C39.3097 30.8946 37.1536 29.5345 34.7886 28.6431C32.4236 27.7516 29.8996 27.3477 27.3713 27.456V27.456Z" fill="#FFCE95"/>
</g>
<defs>
<clipPath id="clip0_10_77">
<rect width="54.3158" height="48" fill="white"/>
</clipPath>
</defs>
</svg>
