<svg width="41" height="48" viewBox="0 0 41 48" fill="none" xmlns="http://www.w3.org/2000/svg">
<path d="M0.00720572 6.36441C0.00720572 2.78479 2.96381 -0.344987 6.78267 0.0306819C19.2174 1.25794 30.7377 7.08706 39.0676 16.3663C41.6375 19.2209 40.8377 23.4585 37.9171 25.5666L36.9012 26.3012L36.0293 25.0091L36.0101 24.9804C28.3484 14.4377 15.8831 7.57517 1.80855 7.57517H0.00720572V6.36441ZM33.0751 27.0621L33.983 28.4092C30.8216 30.6924 27.6617 32.9776 24.5031 35.2646L24.0179 35.6235V40.6532C24.0179 41.2878 23.7649 41.8964 23.3145 42.3451C22.864 42.7939 22.2531 43.046 21.6161 43.046C20.9792 43.046 20.3682 42.7939 19.9178 42.3451C19.4674 41.8964 19.2144 41.2878 19.2144 40.6532V40.5096C19.1759 40.2084 19.024 39.9331 18.7894 39.7393C18.5548 39.5456 18.255 39.448 17.9508 39.4662C17.6466 39.4845 17.3608 39.6173 17.1512 39.8377C16.9417 40.058 16.824 40.3496 16.8222 40.6532V44.2448C16.8222 44.8587 16.5855 45.4491 16.1608 45.894C15.7361 46.3389 15.1561 46.6041 14.5406 46.6348C13.9252 46.6656 13.3214 46.4595 12.8542 46.0591C12.387 45.6588 12.0921 45.0949 12.0306 44.484L8.572 46.9725C4.99573 49.5424 -0.00240093 46.9965 8.65288e-07 42.6033L0.00720572 11.162H1.80855C14.6678 11.162 26.0571 17.4239 33.0751 27.0621ZM9.61678 21.5108C10.2538 21.5108 10.8647 21.2587 11.3151 20.81C11.7655 20.3612 12.0186 19.7526 12.0186 19.118C12.0186 18.4834 11.7655 17.8748 11.3151 17.426C10.8647 16.9773 10.2538 16.7252 9.61678 16.7252C8.97979 16.7252 8.36888 16.9773 7.91846 17.426C7.46804 17.8748 7.21499 18.4834 7.21499 19.118C7.21499 19.7526 7.46804 20.3612 7.91846 20.81C8.36888 21.2587 8.97979 21.5108 9.61678 21.5108ZM19.224 28.6844C19.861 28.6844 20.4719 28.4323 20.9223 27.9836C21.3727 27.5348 21.6258 26.9262 21.6258 26.2916C21.6258 25.657 21.3727 25.0484 20.9223 24.5996C20.4719 24.1509 19.861 23.8988 19.224 23.8988C18.587 23.8988 17.9761 24.1509 17.5256 24.5996C17.0752 25.0484 16.8222 25.657 16.8222 26.2916C16.8222 26.9262 17.0752 27.5348 17.5256 27.9836C17.9761 28.4323 18.587 28.6844 19.224 28.6844ZM9.61678 35.858C10.2538 35.858 10.8647 35.6059 11.3151 35.1572C11.7655 34.7084 12.0186 34.0998 12.0186 33.4652C12.0186 32.8306 11.7655 32.222 11.3151 31.7732C10.8647 31.3245 10.2538 31.0724 9.61678 31.0724C8.97979 31.0724 8.36888 31.3245 7.91846 31.7732C7.46804 32.222 7.21499 32.8306 7.21499 33.4652C7.21499 34.0998 7.46804 34.7084 7.91846 35.1572C8.36888 35.6059 8.97979 35.858 9.61678 35.858Z" fill="#FFCE95"/>
</svg>
