<svg width="18" height="18" viewBox="0 0 18 18" fill="none" xmlns="http://www.w3.org/2000/svg">
<path d="M17.0357 0C17.2687 7.86137e-06 17.4939 0.067519 17.6695 0.190049C17.8451 0.312578 17.9593 0.481837 17.991 0.666523L18 0.771439V17.2288C17.9999 17.4243 17.9071 17.6124 17.7403 17.7552C17.5735 17.898 17.3452 17.9849 17.1014 17.9982C16.8577 18.0115 16.6167 17.9503 16.4272 17.827C16.2377 17.7036 16.1137 17.5273 16.0804 17.3337L16.0714 17.2288V12.0859H13.1786C12.9456 12.0859 12.7204 12.0184 12.5448 11.8958C12.3692 11.7733 12.255 11.604 12.2233 11.4193L12.2143 11.3144V3.85719C12.2143 2.8342 12.7223 1.85311 13.6264 1.12975C14.5306 0.406382 15.757 0 17.0357 0V0ZM9.32143 0C9.55445 7.86137e-06 9.77958 0.067519 9.9552 0.190049C10.1308 0.312578 10.245 0.481837 10.2767 0.666523L10.2857 0.771439V4.88578C10.2857 6.8946 8.48571 8.56605 6.10714 8.92812V17.2288C6.10707 17.4243 6.01426 17.6124 5.84746 17.7552C5.68067 17.898 5.45233 17.9849 5.20858 17.9982C4.96483 18.0115 4.72385 17.9503 4.53433 17.827C4.34481 17.7036 4.22087 17.5273 4.18757 17.3337L4.17857 17.2288V8.92812C3.04813 8.75521 2.02279 8.28409 1.26646 7.59007C0.510126 6.89605 0.0664761 6.01922 0.00642872 5.09972L0 4.88578V0.771439C7.48833e-05 0.575983 0.0928856 0.387837 0.259679 0.245017C0.426472 0.102198 0.654813 0.0153528 0.89856 0.00203054C1.14231 -0.0112917 1.38329 0.049902 1.57281 0.173247C1.76234 0.296592 1.88627 0.472892 1.91957 0.666523L1.92857 0.771439V4.88578C1.92857 6.03779 2.87486 7.01186 4.17857 7.33998V0.771439C4.17865 0.575983 4.27146 0.387837 4.43825 0.245017C4.60504 0.102198 4.83338 0.0153528 5.07713 0.00203054C5.32088 -0.0112917 5.56186 0.049902 5.75138 0.173247C5.94091 0.296592 6.06484 0.472892 6.09814 0.666523L6.10714 0.771439V7.33895C6.72068 7.18426 7.26216 6.88596 7.66163 6.48259C8.06111 6.07921 8.30024 5.58927 8.34814 5.07607L8.35714 4.88578V0.771439C8.35714 0.56684 8.45874 0.370622 8.63958 0.225949C8.82041 0.0812762 9.06568 0 9.32143 0ZM16.0714 10.543V1.67454C15.5429 1.82418 15.08 2.09338 14.739 2.44943C14.3981 2.80547 14.1936 3.23307 14.1506 3.68028L14.1429 3.85719V10.543H16.0714V1.67454V10.543Z" fill="#303030"/>
</svg>
