<svg width="20" height="20" viewBox="0 0 20 20" fill="none" xmlns="http://www.w3.org/2000/svg">
<path d="M13.9919 16.9768L13.4505 12.3652C13.3738 11.712 13.0754 11.1111 12.6115 10.6756C12.1476 10.24 11.5501 9.99975 10.9314 10H9.06694C8.4485 10.0002 7.85141 10.2406 7.38785 10.6762C6.92428 11.1117 6.62615 11.7123 6.54947 12.3652L6.00723 16.9768C5.97747 17.2302 5.99872 17.4874 6.06955 17.7313C6.14039 17.9753 6.25921 18.2004 6.4181 18.3918C6.57699 18.5831 6.77233 18.7363 6.99115 18.8412C7.20996 18.946 7.44724 19.0002 7.68723 19H12.3128C12.5527 19.0001 12.7899 18.9458 13.0086 18.8409C13.2273 18.736 13.4225 18.5828 13.5813 18.3914C13.7401 18.2001 13.8589 17.975 13.9296 17.7311C14.0004 17.4872 14.0217 17.2301 13.9919 16.9768V16.9768Z" stroke="#303030" stroke-width="2" stroke-linecap="round" stroke-linejoin="round"/>
<path d="M10 6.4C11.4016 6.4 12.5378 5.19117 12.5378 3.7C12.5378 2.20883 11.4016 1 10 1C8.59843 1 7.46223 2.20883 7.46223 3.7C7.46223 5.19117 8.59843 6.4 10 6.4Z" stroke="#303030" stroke-width="2"/>
<path d="M3.23261 9.1C4.16699 9.1 4.92445 8.29411 4.92445 7.3C4.92445 6.30589 4.16699 5.5 3.23261 5.5C2.29822 5.5 1.54076 6.30589 1.54076 7.3C1.54076 8.29411 2.29822 9.1 3.23261 9.1Z" stroke="#303030" stroke-width="2"/>
<path d="M16.7674 9.1C17.7018 9.1 18.4592 8.29411 18.4592 7.3C18.4592 6.30589 17.7018 5.5 16.7674 5.5C15.833 5.5 15.0755 6.30589 15.0755 7.3C15.0755 8.29411 15.833 9.1 16.7674 9.1Z" stroke="#303030" stroke-width="2"/>
<path d="M3.2326 11.8H2.97375C2.57326 11.8 2.18573 11.9511 1.88012 12.2265C1.57451 12.5019 1.37062 12.8837 1.30474 13.3039L1.02305 15.1039C0.982623 15.3618 0.995489 15.626 1.06075 15.8781C1.12601 16.1301 1.2421 16.364 1.40095 16.5635C1.55979 16.763 1.75758 16.9233 1.98054 17.0332C2.20351 17.1432 2.44631 17.2001 2.69206 17.2H5.77038M16.7674 11.8H17.0262C17.4267 11.8 17.8143 11.9511 18.1199 12.2265C18.4255 12.5019 18.6294 12.8837 18.6953 13.3039L18.977 15.1039C19.0174 15.3618 19.0045 15.626 18.9392 15.8781C18.874 16.1301 18.7579 16.364 18.5991 16.5635C18.4402 16.763 18.2424 16.9233 18.0195 17.0332C17.7965 17.1432 17.5537 17.2001 17.3079 17.2H14.2296" stroke="#303030" stroke-width="2" stroke-linecap="round" stroke-linejoin="round"/>
</svg>
