<svg width="133" height="25" viewBox="0 0 133 25" fill="none" xmlns="http://www.w3.org/2000/svg">
<path d="M11.688 18L8.064 12.36L4.776 18H0.984L6.264 9.552L0.912 1.248H4.776L8.4 6.864L11.664 1.248H15.456L10.2 9.672L15.552 18H11.688ZM30.8291 4.704L22.5971 24.288H19.0211L21.9011 17.664L16.5731 4.704H20.3411L23.7731 13.992L27.2531 4.704H30.8291ZM36.0004 0.24V18H32.6404V0.24H36.0004ZM45.2241 18.216C43.9441 18.216 42.7921 17.936 41.7681 17.376C40.7441 16.8 39.9361 15.992 39.3441 14.952C38.7681 13.912 38.4801 12.712 38.4801 11.352C38.4801 9.992 38.7761 8.792 39.3681 7.752C39.9761 6.712 40.8001 5.912 41.8401 5.352C42.8801 4.776 44.0401 4.488 45.3201 4.488C46.6001 4.488 47.7601 4.776 48.8001 5.352C49.8401 5.912 50.6561 6.712 51.2481 7.752C51.8561 8.792 52.1601 9.992 52.1601 11.352C52.1601 12.712 51.8481 13.912 51.2241 14.952C50.6161 15.992 49.7841 16.8 48.7281 17.376C47.6881 17.936 46.5201 18.216 45.2241 18.216ZM45.2241 15.288C45.8321 15.288 46.4001 15.144 46.9281 14.856C47.4721 14.552 47.9041 14.104 48.2241 13.512C48.5441 12.92 48.7041 12.2 48.7041 11.352C48.7041 10.088 48.3681 9.12 47.6961 8.448C47.0401 7.76 46.2321 7.416 45.2721 7.416C44.3121 7.416 43.5041 7.76 42.8481 8.448C42.2081 9.12 41.8881 10.088 41.8881 11.352C41.8881 12.616 42.2001 13.592 42.8241 14.28C43.4641 14.952 44.2641 15.288 45.2241 15.288Z" fill="#DE4B2C"/>
<path d="M57.9848 3.96V8.16H63.6248V10.824H57.9848V15.264H64.3448V18H54.6248V1.224H64.3448V3.96H57.9848ZM72.9422 14.904L76.3022 4.704H79.8782L74.9582 18H70.8782L65.9822 4.704H69.5822L72.9422 14.904ZM94.1254 11.064C94.1254 11.544 94.0934 11.976 94.0294 12.36H84.3094C84.3894 13.32 84.7254 14.072 85.3174 14.616C85.9094 15.16 86.6374 15.432 87.5014 15.432C88.7494 15.432 89.6374 14.896 90.1654 13.824H93.7894C93.4054 15.104 92.6694 16.16 91.5814 16.992C90.4934 17.808 89.1574 18.216 87.5734 18.216C86.2934 18.216 85.1414 17.936 84.1174 17.376C83.1094 16.8 82.3174 15.992 81.7414 14.952C81.1814 13.912 80.9014 12.712 80.9014 11.352C80.9014 9.976 81.1814 8.768 81.7414 7.728C82.3014 6.688 83.0854 5.888 84.0934 5.328C85.1014 4.768 86.2614 4.488 87.5734 4.488C88.8374 4.488 89.9654 4.76 90.9574 5.304C91.9654 5.848 92.7414 6.624 93.2854 7.632C93.8454 8.624 94.1254 9.768 94.1254 11.064ZM90.6454 10.104C90.6294 9.24 90.3174 8.552 89.7094 8.04C89.1014 7.512 88.3574 7.248 87.4774 7.248C86.6454 7.248 85.9414 7.504 85.3654 8.016C84.8054 8.512 84.4614 9.208 84.3334 10.104H90.6454ZM103.946 4.512C105.53 4.512 106.81 5.016 107.786 6.024C108.762 7.016 109.25 8.408 109.25 10.2V18H105.89V10.656C105.89 9.6 105.626 8.792 105.098 8.232C104.57 7.656 103.85 7.368 102.938 7.368C102.01 7.368 101.274 7.656 100.73 8.232C100.202 8.792 99.9379 9.6 99.9379 10.656V18H96.5779V4.704H99.9379V6.36C100.386 5.784 100.954 5.336 101.642 5.016C102.346 4.68 103.114 4.512 103.946 4.512ZM116.357 7.464V13.896C116.357 14.344 116.461 14.672 116.669 14.88C116.893 15.072 117.261 15.168 117.773 15.168H119.333V18H117.221C114.389 18 112.973 16.624 112.973 13.872V7.464H111.389V4.704H112.973V1.416H116.357V4.704H119.333V7.464H116.357ZM126.838 18.216C125.75 18.216 124.774 18.024 123.91 17.64C123.046 17.24 122.358 16.704 121.846 16.032C121.35 15.36 121.078 14.616 121.03 13.8H124.414C124.478 14.312 124.726 14.736 125.158 15.072C125.606 15.408 126.158 15.576 126.814 15.576C127.454 15.576 127.95 15.448 128.302 15.192C128.67 14.936 128.854 14.608 128.854 14.208C128.854 13.776 128.63 13.456 128.182 13.248C127.75 13.024 127.054 12.784 126.094 12.528C125.102 12.288 124.286 12.04 123.646 11.784C123.022 11.528 122.478 11.136 122.014 10.608C121.566 10.08 121.342 9.368 121.342 8.472C121.342 7.736 121.55 7.064 121.966 6.456C122.398 5.848 123.006 5.368 123.79 5.016C124.59 4.664 125.526 4.488 126.598 4.488C128.182 4.488 129.446 4.888 130.39 5.688C131.334 6.472 131.854 7.536 131.95 8.88H128.734C128.686 8.352 128.462 7.936 128.062 7.632C127.678 7.312 127.158 7.152 126.502 7.152C125.894 7.152 125.422 7.264 125.086 7.488C124.766 7.712 124.606 8.024 124.606 8.424C124.606 8.872 124.83 9.216 125.278 9.456C125.726 9.68 126.422 9.912 127.366 10.152C128.326 10.392 129.118 10.64 129.742 10.896C130.366 11.152 130.902 11.552 131.35 12.096C131.814 12.624 132.054 13.328 132.07 14.208C132.07 14.976 131.854 15.664 131.422 16.272C131.006 16.88 130.398 17.36 129.598 17.712C128.814 18.048 127.894 18.216 126.838 18.216Z" fill="#303030"/>
</svg>
