<svg width="20" height="20" viewBox="0 0 20 20" fill="none" xmlns="http://www.w3.org/2000/svg">
<path d="M6.6842 16.1076V4.2639C6.68415 3.80323 6.84614 3.35777 7.14086 3.00813C7.43558 2.65849 7.84356 2.42778 8.29094 2.35776L16.8173 1.02241C17.0873 0.980145 17.3631 0.997809 17.6258 1.07419C17.8884 1.15056 18.1318 1.28385 18.3391 1.4649C18.5464 1.64595 18.7128 1.87049 18.8269 2.12313C18.941 2.37576 19 2.65051 19 2.92854V14.1793" stroke="#303030" stroke-width="2" stroke-linecap="round" stroke-linejoin="round"/>
<path d="M6.6842 7.43014L19 5.50183" stroke="#303030" stroke-width="2"/>
<path d="M6.68421 16.1075C6.68421 16.8746 6.38477 17.6103 5.85178 18.1528C5.31878 18.6952 4.59588 18.9999 3.8421 18.9999C3.08833 18.9999 2.36543 18.6952 1.83243 18.1528C1.29944 17.6103 1 16.8746 1 16.1075C1 14.5099 2.27232 14.1792 3.8421 14.1792C5.41189 14.1792 6.68421 14.5099 6.68421 16.1075ZM19 14.1792C19 14.9463 18.7006 15.682 18.1676 16.2244C17.6346 16.7669 16.9117 17.0716 16.1579 17.0716C15.4041 17.0716 14.6812 16.7669 14.1482 16.2244C13.6152 15.682 13.3158 14.9463 13.3158 14.1792C13.3158 12.5816 14.5881 12.2509 16.1579 12.2509C17.7277 12.2509 19 12.5816 19 14.1792Z" stroke="#303030" stroke-width="2" stroke-linecap="round" stroke-linejoin="round"/>
</svg>
