<svg width="176" height="163" viewBox="0 0 176 163" fill="none" xmlns="http://www.w3.org/2000/svg">
<path d="M12.2492 75.9582C11.6827 76.3907 11.2171 76.7395 10.7657 77.1459C8.47437 79.3052 7.01937 81.9394 5.94339 84.9105C4.472 89.062 4.00026 93.3477 4.02847 97.701C4.10018 104.89 5.57925 111.878 8.02321 118.584C11.6338 128.535 16.9986 137.419 23.9572 145.331C27.8781 149.762 32.167 153.684 37.2184 156.706C39.0436 157.801 40.9443 158.698 42.8892 159.524C44.0257 159.991 45.3257 160.117 46.582 160.313C47.0245 160.394 47.4664 160.474 47.572 160.935C47.5933 161.293 47.5262 161.793 47.3488 162.075C46.8923 162.725 46.1439 162.896 45.4453 162.753C44.0037 162.539 42.5304 162.452 41.1952 161.91C39.007 161.079 36.8944 160.049 34.8567 158.82C30.9055 156.637 27.385 153.69 24.2142 150.419C13.1736 138.96 5.68012 125.539 2.22485 109.921C0.688705 102.947 0.284756 95.8943 1.69874 88.8493C2.95207 82.689 5.33714 77.2382 10.6704 73.2924C10.4365 72.8011 10.1588 72.3799 9.93817 71.9464C6.88182 66.5305 4.30324 60.8242 2.56127 54.8045C0.859657 48.9576 -0.081306 42.997 0.583479 36.911C0.808056 34.9824 1.21808 33.0721 1.7698 31.2503C4.63822 22.3588 11.7776 17.5756 21.1024 18.1043C24.4775 18.3003 27.6967 19.1373 30.8664 20.2886C37.0204 22.5728 42.5804 25.962 47.8294 29.846C49.2829 30.9061 50.6349 32.0496 52.1013 33.1672C52.3972 33.402 52.6803 33.5795 53.1179 33.9029C53.2867 33.3194 53.4692 32.7931 53.6068 32.3376C54.84 27.9379 56.7404 23.8094 59.6881 20.2882C63.3409 15.8796 67.9508 13.0074 73.6682 12.0614C77.058 11.5276 80.318 11.7498 83.6523 12.5606C88.9103 13.8392 93.5991 16.3379 98.0048 19.4461C98.5834 19.8589 99.1624 20.2713 99.8253 20.7855C100.136 20.2904 100.389 19.8087 100.655 19.3843C103.219 14.9828 106.667 11.5289 111.501 9.63474C114.994 8.22978 118.622 7.94367 122.351 8.36177C127.136 8.90085 131.5 10.5048 135.708 12.7502C141.56 15.8307 146.72 19.856 151.366 24.5446C151.746 24.8813 152.139 25.2757 152.603 25.7148C152.9 25.162 153.109 24.7509 153.361 24.2692C155.795 19.2918 158.439 14.4477 161.791 10.0474C163.321 8.00154 165.005 6.10261 166.76 4.24725C168.019 2.86904 169.574 1.7257 171.336 0.958958C172.65 0.355558 173.553 0.330316 174.676 0.739397C174.631 0.809674 174.601 0.938017 174.601 0.938017C172.79 1.23139 171.395 2.27744 170.097 3.48322C168.099 5.33305 166.467 7.46283 164.977 9.68142C161.127 15.3457 157.914 21.4103 155.042 27.6386C155.01 27.7667 154.979 27.8952 154.859 28.1649C155.111 28.4704 155.376 28.8333 155.698 29.1837C163.239 38.0528 168.911 48.0167 172.529 59.0556C174.475 64.9071 175.672 70.9304 175.334 77.1231C175.233 79.3259 174.862 81.409 174.191 83.5004C173.644 85.0788 172.885 86.5242 171.843 87.7922C169.454 90.5794 166.426 91.6364 162.862 90.8782C160.381 90.3562 158.33 89.07 156.387 87.4561C152.415 84.1272 149.648 79.9775 147.608 75.2978C143.149 64.8145 142.561 54.0506 145.884 43.1777C147.201 38.8795 149.017 34.6491 150.59 30.4137C150.786 29.9452 150.982 29.4763 151.177 29.0075C151.08 28.8483 151.054 28.7336 150.97 28.6317C145.543 22.9114 139.455 18.0081 132.263 14.629C128.192 12.7158 124.022 11.4299 119.47 11.3825C111.954 11.3477 105.7 15.5042 102.406 22.7983C102.715 23.0909 103.107 23.4851 103.488 23.8221C110.957 30.5282 117.076 38.2092 121.506 47.2461C123.336 51.0051 124.82 54.843 125.525 58.9805C125.95 61.3659 126.203 63.7906 125.712 66.1435C125.471 67.4703 125.057 68.8361 124.418 70.0119C122.989 72.761 120.315 74.0397 117.201 73.6629C115.445 73.3988 113.841 72.7369 112.355 71.8054C109.811 70.2085 107.69 68.0906 105.876 65.7203C101.577 60.1655 98.8664 53.8835 97.4271 47.0682C95.8034 39.4473 95.8955 31.9181 98.4209 24.4374C98.4524 24.3088 98.4837 24.1808 98.5456 23.9244C98.2497 23.6896 97.9405 23.3969 97.6446 23.162C94.132 20.5148 90.3402 18.2346 86.1759 16.7058C82.935 15.5101 79.6402 14.8722 76.1716 15.0611C71.4422 15.2963 67.3822 17.134 64.0101 20.3887C61.3692 22.8704 59.3909 25.8668 58.0493 29.2621C57.2809 31.1936 56.7687 33.1883 56.1284 35.151C55.8395 36.0047 56.0991 36.6108 56.7882 37.2401C61.5144 41.4866 65.8335 46.0682 69.8026 50.972C75.9254 58.4101 81.3798 66.3646 85.5016 75.1091C87.5072 79.3727 89.1104 83.728 89.8764 88.3964C90.2308 90.7374 90.342 93.0734 89.7229 95.3953C88.7038 99.1402 85.7321 100.971 81.9247 100.208C80.854 100.03 79.802 99.6648 78.8381 99.159C77.3223 98.3557 75.9083 97.4686 74.5825 96.4402C71.6361 94.1479 69.1145 91.3346 66.9121 88.3267C59.1174 77.8202 54.1958 66.1107 52.4794 53.0617C51.8593 48.2388 51.8277 43.3416 52.4815 38.5292C52.5672 37.8437 52.5631 37.2997 51.901 36.7853C46.7323 32.4587 41.3994 28.473 35.3746 25.4323C31.9448 23.6746 28.408 22.244 24.6581 21.468C22.4909 20.9957 20.2616 20.779 18.067 20.9791C12.4169 21.4251 8.32495 24.1788 5.64851 29.1512C3.74487 32.7356 3.12311 36.6319 3.07251 40.64C3.02342 45.9796 4.08083 51.1264 5.78421 56.186C7.52745 61.418 9.86377 66.3321 12.6475 71.0837C12.7704 71.3581 12.9383 71.5617 13.1765 71.81C13.522 71.7314 13.8225 71.7228 14.0972 71.5993C17.3993 70.4191 20.7396 70.1996 24.1317 70.997C26.3691 71.5139 28.6332 72.1463 30.7197 73.0609C39.6186 77.0175 46.6684 83.2139 51.9898 91.3804C53.2117 93.2806 54.2302 95.3481 54.731 97.5349C54.8888 98.225 55.0472 98.9153 55.1477 99.6191C55.605 103.995 52.9724 106.778 48.6191 106.805C46.801 106.798 45.0632 106.348 43.4007 105.7C40.7572 104.731 38.3082 103.293 35.9357 101.657C29.9748 97.5723 24.878 92.5029 20.3799 86.8728C17.8504 83.758 15.6265 80.3922 13.2559 77.1811C12.8186 76.8573 12.5406 76.4366 12.2492 75.9582ZM153.164 31.3382C152.502 32.943 151.916 34.3484 151.342 35.8123C149.516 40.5294 147.818 45.2777 147.088 50.2889C145.723 59.9262 147.101 69.1169 151.727 77.6849C153.425 80.8685 155.645 83.6903 158.566 85.8672C159.962 86.9401 161.434 87.8145 163.216 88.1933C165.754 88.7019 167.914 88.0862 169.488 85.9697C170.224 84.9538 170.934 83.8223 171.259 82.5974C171.766 80.8466 172.132 79.0068 172.255 77.1621C172.573 71.9426 171.644 66.8272 170.14 61.8432C166.862 50.9682 161.473 41.1822 154.259 32.4195C153.95 32.1268 153.583 31.8475 153.164 31.3382ZM55.1865 40.0291C55.1063 40.4717 55.031 40.6703 55.026 40.9135C54.7102 44.5584 54.7523 48.1818 55.1534 51.783C56.2176 60.9251 59.0384 69.5432 63.3738 77.6326C66.3149 83.0748 69.7661 88.097 74.3064 92.3255C75.7686 93.6861 77.4344 94.8787 79.1315 95.9434C80.1918 96.609 81.4299 96.9911 82.6989 97.2456C84.5386 97.6116 85.8455 96.7067 86.4106 94.9427C86.6991 94.0895 86.8027 93.2182 86.8352 92.3025C86.9589 89.6706 86.437 87.1254 85.6845 84.6339C84.5717 80.8318 83.0694 77.1797 81.1776 73.6768C74.638 61.2484 66.0343 50.3815 55.933 40.6456C55.7788 40.4992 55.5535 40.3084 55.1865 40.0291ZM100.909 26.0474C100.758 26.4452 100.58 26.7282 100.531 27.042C100.201 28.5102 99.7435 29.9474 99.5416 31.4463C98.1905 40.3541 99.7115 48.8461 103.502 56.9393C105.371 60.8712 107.692 64.3963 110.912 67.3522C112.374 68.7128 113.97 69.8613 115.888 70.5723C119.045 71.6662 121.387 70.5246 122.41 67.3233C122.975 65.5593 122.969 63.683 122.791 61.8471C122.47 57.803 121.114 53.9964 119.426 50.3259C115.212 41.1794 109.138 33.4273 101.726 26.708C101.558 26.5039 101.276 26.3267 100.909 26.0474ZM14.654 74.5601C14.8614 74.9367 14.9847 75.2106 15.0949 75.4276C20.112 83.0583 25.8998 90.0888 32.8841 95.998C35.8126 98.476 38.8746 100.742 42.3934 102.358C43.9541 103.09 45.6608 103.668 47.3588 103.946C51.0119 104.563 52.6958 102.663 51.9813 99.0119C51.5117 96.6971 50.4936 94.6299 49.2006 92.6853C44.4038 85.4887 38.1711 79.9528 30.4002 76.1613C27.5364 74.7585 24.5338 73.8111 21.3312 73.576C19.1153 73.417 16.9335 73.6746 14.654 74.5601Z" fill="#FEDED7"/>
</svg>
